<svg xmlns="http://www.w3.org/2000/svg" xmlns:xlink="http://www.w3.org/1999/xlink" width="821.044" height="883.724" viewBox="0 0 821.044 883.724">
  <defs>
    <linearGradient id="linear-gradient" x1="0.132" y1="0.5" x2="0.915" y2="0.5" gradientUnits="objectBoundingBox">
      <stop offset="0" stop-color="#92fe9d" stop-opacity="0.71"/>
      <stop offset="1" stop-color="#00c9ff" stop-opacity="0.6"/>
    </linearGradient>
    <linearGradient id="linear-gradient-2" x1="0.37" y1="0.323" x2="0.5" y2="0.791" gradientUnits="objectBoundingBox">
      <stop offset="0" stop-color="#ff5858" stop-opacity="0.761"/>
      <stop offset="1" stop-color="#f09819" stop-opacity="0.741"/>
    </linearGradient>
  </defs>
  <g id="Group_32" data-name="Group 32" transform="translate(-87.118 -101.756)">
    <g id="blob-shape" transform="matrix(0.966, -0.259, 0.259, 0.966, 343.157, 554.075)">
      <path id="Path_1" data-name="Path 1" d="M399.357-124.759c71.209,65.4,101.09,179.57,66.9,264.5C432.212,224.682,334.095,280.52,231.221,326.8,128.2,372.937,20.269,409.655-58.967,378.618-138.2,347.72-188.9,249.206-205.1,152.078c-16.353-96.99,1.487-192.733,58.573-255.222,56.938-62.489,153.122-91.725,257.482-97.821C215.314-207.2,328.148-190.3,399.357-124.759Z" transform="translate(0)" fill="url(#linear-gradient)"/>
    </g>
    <g id="blob-shape_1_" data-name="blob-shape (1)" transform="matrix(0.978, 0.208, -0.208, 0.978, 624.413, 378.796)">
      <path id="Path_2" data-name="Path 2" d="M164.6-144.1c34.3,55.8,37.7,123.4,17.6,175.3C162,83,118.3,119,70.3,139.7s-100.4,26.1-138.8,6.2c-38.5-19.9-63-65.1-83.8-121.2-20.8-56-37.8-123-11.8-176.9s95-94.9,162.1-93.3C65.2-244,130.3-199.9,164.6-144.1Z" fill="url(#linear-gradient-2)"/>
    </g>
  </g>
</svg>
